<?xml version="1.0" encoding="UTF-8"?>
<svg version="1.1" viewBox="0 0 2048 1310" width="794" height="508" xmlns="http://www.w3.org/2000/svg">

<path transform="translate(1290,256)" d="m0 0h2l1 399 1 2 38 13 11 3 1 1v30l-8-1-72-16-116-25-63-14-40-9-11-3v-3l26-5 24-6 5-2v-180l-24 16-5 3h-2v-26l11-8 18-14 32-24 14-11 16-13 12-9 38-29 28-22 21-16 32-24z" fill="#2D2B4D"/>
<path transform="translate(747,256)" d="m0 0 5 2 16 12 17 13 54 42 16 13 18 14 13 10 16 13 19 14 15 12 16 12 17 14 11 9v22l-5-2-19-12-7-5h-1l-1 63v91l1 27 15 5 39 8 3 2-9 3-32 8-61 13-150 33-57 12v-30l30-10 20-8z" fill="#BA9E72"/>
<path transform="translate(1308,74)" d="m0 0h1l1 14v97l-18 14-13 10-15 12-17 13-15 12-13 10-16 13-17 13-18 14-16 13-17 13-42 33-18 14-13 10-17 14-14 10-2-3v-99l1-11 14-11 16-13 13-10 16-12 19-14 17-14 13-10 21-16 16-12 11-9 16-13 17-13 15-12 19-14 16-13 17-13 16-13z" fill="#2D2C4D"/>
<path transform="translate(730,75)" d="m0 0 9 6 12 9 16 13 20 15 16 13 12 9 13 10 14 11 15 12 16 12 18 14 15 12 17 13 14 11 18 14 13 10 16 13 17 13 8 6v112l-7-4-12-9-28-22-18-14-17-13-11-9-18-14-14-11-15-12-13-10-28-22-15-12-17-13-14-11-10-8-16-13-20-15-6-5z" fill="#BA9E72"/>
<path transform="translate(1173,851)" d="m0 0h28l15 3 17 7 12 8 10 9 7 8 8 13 6 15 3 14v19l-3 16-7 18-9 14-9 10-12 10-16 8-17 5-5 1h-24l-19-4-15-6-15-9-12-11-9-12-7-15-4-15-1-8v-21l3-14 6-15 7-11 11-12 10-9 14-8 13-5z" fill="#2E2C4D"/>
<path transform="translate(909,852)" d="m0 0h5l19 38 11 23 19 39 2 5 3-4 11-23 19-39 13-27 5-11 3-1h27l14 1 1 100v43l-1 31h-35l-1-111-3 4-12 25-17 33-8 16-7 13h-24l-7-12-11-23-24-47-4-9-1 111h-36l-1-100 1-74z" fill="#2D2C4D"/>
<path transform="translate(650,852)" d="m0 0h21l20 2 15 4 13 7 12 11 6 10 4 13 1 8v10l-2 14-4 11-6 10-9 10-9 6-2 1 2 5 8 14 22 33 3 4v2h-44l-15-24-9-15-5-9v-2h-39v50h-38v-174z" fill="#2D2C4D"/>
<path transform="translate(1829,852)" d="m0 0h49l21 3 14 5 12 7 7 7 7 11 4 12 1 6v18l-2 12-5 12-8 11-9 9-8 4 8 14 14 22 8 11 6 8 1 3h-45l-9-16-10-16-8-13-2-4h-38l-1 49h-37l-1-11v-163z" fill="#2D2C4D"/>
<path transform="translate(99,853)" d="m0 0h84l17 3 13 5 10 7 7 6 7 10 5 13 1 7v25l-4 13-7 12-10 10-8 5-16 6-18 3-26 1h-17v48h-38z" fill="#2D2C4D"/>
<path transform="translate(1342,852)" d="m0 0h6l5 5 12 16 13 17 9 12 14 18 11 14 12 15 10 14 1-110h36l1 5v48l-1 121h-34l-12-15-11-14-14-18-20-26-14-18-13-17h-1l-1 108h-37l-1-48v-126z" fill="#2D2C4D"/>
<path transform="translate(1660,852)" d="m0 0h38l6 12 15 37 12 27 11 26 16 38 14 34v1h-40l-5-12-8-18-1-5h-78l-1 5-12 30h-40l1-5 9-20 16-39 15-35 13-31 13-30z" fill="#2E2C4D"/>
<path transform="translate(355,852)" d="m0 0 3 1 13 32 20 48 12 28 10 23 12 31 4 10v2h-39l-5-12-8-19-1-3h-77l-11 27-3 6-1 1h-38l1-6 17-41 13-30 12-28 9-22 8-19 10-27 1-1z" fill="#2E2C4D"/>
<path transform="translate(516,852)" d="m0 0h128v31l-88 1-1 44 73 1v31l-73 1v35l91 1v30h-130z" fill="#2D2C4D"/>
<path transform="translate(1506,852)" d="m0 0h37v143l87 1v30h-124z" fill="#2D2C4D"/>
<path transform="translate(137,883)" d="m0 0h51l10 2 7 4 5 5 3 8v14l-3 9-6 6-10 4-12 1h-45z" fill="#FDFDFD"/>
<path transform="translate(688,883)" d="m0 0h47l9 2 7 5 4 8v14l-4 9-7 5-9 2h-47z" fill="#FDFDFD"/>
<path transform="translate(1867,883)" d="m0 0h47l9 2 7 5 4 8v14l-4 9-7 5-9 2h-47z" fill="#FDFDFD"/>
<path transform="translate(1170,882)" d="m0 0h20l15 3 12 7 8 9 5 10 2 13-1 15-4 11-7 10-10 7-14 4-5 1h-18l-14-4-10-6-8-9-5-11-2-14 1-14 5-13 8-10 10-6z" fill="#FDFDFD"/>
<path transform="translate(1679,910)" d="m0 0 10 22 12 27 3 7h-50z" fill="#FDFDFD"/>
<path transform="translate(376,910)" d="m0 0 10 22 12 27 3 7h-50z" fill="#FDFDFD"/>
<path transform="translate(688,948)" d="m0 0h25l11 2 8 4 5 6 2 4 1 8-1 8-4 7-6 5-9 3h-55l1-47z" fill="#FDFDFD"/>
<path transform="translate(1867,948)" d="m0 0h25l11 2 8 4 5 6 2 4 1 8-1 8-4 7-6 5-9 3h-55l1-47z" fill="#FDFDFD"/>
</svg>